<svg width="17" height="16" viewBox="0 0 17 16" fill="none" xmlns="http://www.w3.org/2000/svg">
<path d="M12.3333 12.9997C12.7754 12.9997 13.1993 13.1753 13.5118 13.4878C13.8244 13.8004 14 14.2243 14 14.6663C14 14.2243 14.1756 13.8004 14.4882 13.4878C14.8007 13.1753 15.2246 12.9997 15.6667 12.9997C15.2246 12.9997 14.8007 12.8241 14.4882 12.5115C14.1756 12.199 14 11.775 14 11.333C14 11.775 13.8244 12.199 13.5118 12.5115C13.1993 12.8241 12.7754 12.9997 12.3333 12.9997ZM12.3333 2.99967C12.7754 2.99967 13.1993 3.17527 13.5118 3.48783C13.8244 3.80039 14 4.22431 14 4.66634C14 4.22431 14.1756 3.80039 14.4882 3.48783C14.8007 3.17527 15.2246 2.99967 15.6667 2.99967C15.2246 2.99967 14.8007 2.82408 14.4882 2.51152C14.1756 2.19896 14 1.77504 14 1.33301C14 1.77504 13.8244 2.19896 13.5118 2.51152C13.1993 2.82408 12.7754 2.99967 12.3333 2.99967ZM6.5 12.9997C6.5 11.6736 7.02678 10.4018 7.96447 9.46414C8.90215 8.52646 10.1739 7.99967 11.5 7.99967C10.1739 7.99967 8.90215 7.47289 7.96447 6.53521C7.02678 5.59753 6.5 4.32576 6.5 2.99967C6.5 4.32576 5.97322 5.59753 5.03553 6.53521C4.09785 7.47289 2.82608 7.99967 1.5 7.99967C2.82608 7.99967 4.09785 8.52646 5.03553 9.46414C5.97322 10.4018 6.5 11.6736 6.5 12.9997Z" stroke="#6A8C05" stroke-width="1.66667" stroke-linecap="round" stroke-linejoin="round"/>
</svg>
